<?xml version="1.0" encoding="utf-8"?>
<!-- Generator: Adobe Illustrator 15.0.0, SVG Export Plug-In . SVG Version: 6.00 Build 0)  -->
<!DOCTYPE svg PUBLIC "-//W3C//DTD SVG 1.1//EN" "http://www.w3.org/Graphics/SVG/1.1/DTD/svg11.dtd">
<svg version="1.1" id="Layer_1" xmlns="http://www.w3.org/2000/svg" xmlns:xlink="http://www.w3.org/1999/xlink" x="0px" y="0px"
	 width="500px" height="500px" viewBox="0 0 500 500" enable-background="new 0 0 500 500" xml:space="preserve">
<g>
	<path fill-rule="evenodd" clip-rule="evenodd" fill="#62BB46" d="M464.001,0.06c-50.913,12.819-106.984,53.674-124.526,106.734
		c-22.568,51.589-23.127,113.853-20.858,174.213c-0.43,71.588-10.916,145.99-78.513,182.801
		C180.231,495.226,109.256,499.878,36.443,500v-0.613c47.235-13.064,97.599-45.821,119-93.858
		c28.1-59.498,30.491-131.146,26.38-202.424c1.414-66.806,16.809-135.383,80.971-168.691C321.99,3.983,391.922-0.613,464.001,0.06
		L464.001,0.06z"/>
	<path fill-rule="evenodd" clip-rule="evenodd" fill="#5CCAE8" d="M493.444,1.289c-56.858,46.371-90.727,105.506-90.176,177.279
		c-0.854,84.285-24.411,159.187-75.452,222.672h-1.838c15.03-38.461,19.024-81.521,20.243-125.746l0.613-95.701
		c-0.062-62.812,31.409-121.277,87.723-152.127c18.829-11.163,38.468-20.369,58.887-27.605V1.289L493.444,1.289z"/>
	<path fill-rule="evenodd" clip-rule="evenodd" fill="#5CCAE8" d="M174.466,99.434c-15.033,37.239-19.022,79.073-20.244,122.073
		l-0.613,99.377c-1.044,62.07-29.938,120.721-87.107,151.511C47.484,483.561,27.92,493.381,7,500
		c41.407-36.252,75.941-78.639,84.652-130.042l4.909-39.875l4.907-62.563c6.626-63.129,32.877-118.092,71.156-168.086H174.466
		L174.466,99.434z"/>
</g>
</svg>
